<svg width="180" height="24" viewBox="0 0 180 24" fill="none" xmlns="http://www.w3.org/2000/svg">
<g clip-path="url(#clip0_2608_3702)">
<mask id="mask0_2608_3702" style="mask-type:luminance" maskUnits="userSpaceOnUse" x="0" y="0" width="180" height="24">
<path d="M180 0H0V24H180V0Z" fill="white"/>
</mask>
<g mask="url(#mask0_2608_3702)">
<path fill-rule="evenodd" clip-rule="evenodd" d="M4.69995 1C3.63909 1 2.62167 1.42143 1.87152 2.17157C1.12138 2.92172 0.699951 3.93913 0.699951 5V19C0.699951 20.0609 1.12138 21.0783 1.87152 21.8284C2.62167 22.5786 3.63909 23 4.69995 23H18.7C19.7608 23 20.7782 22.5786 21.5284 21.8284C22.2785 21.0783 22.7 20.0609 22.7 19V5C22.7 3.93913 22.2785 2.92172 21.5284 2.17157C20.7782 1.42143 19.7608 1 18.7 1H4.69995ZM9.51795 7.773C9.51795 7.773 10.191 7.409 11.7 7.409C13.21 7.409 13.882 7.773 13.882 7.773C15.296 6.523 16.193 6.093 17.882 5.591C18.537 7.145 18.646 8.02 18.609 9.591C18.609 9.591 19.7 10.441 19.7 13.227C19.7 18.044 15.709 19.409 11.7 19.409C7.69095 19.409 3.69995 18.044 3.69995 13.227C3.69995 10.441 4.78995 9.591 4.78995 9.591C4.75395 8.02 4.86295 7.145 5.51795 5.591C7.20695 6.093 8.10395 6.522 9.51795 7.773ZM5.88195 14.318C6.11195 11.538 8.24995 11.787 10.209 12.016C10.732 12.076 11.242 12.136 11.7 12.136C12.158 12.136 12.668 12.076 13.191 12.016C15.15 11.786 17.287 11.537 17.518 14.318C17.826 18.032 14.322 17.987 12.188 17.959L11.7 17.955C11.5473 17.955 11.385 17.9563 11.213 17.959C9.07795 17.987 5.57295 18.032 5.88195 14.319V14.318ZM10.064 14.864C10.064 15.767 9.57495 16.5 8.97295 16.5C8.36995 16.5 7.88195 15.767 7.88195 14.864C7.88195 13.96 8.36995 13.227 8.97195 13.227C9.57395 13.227 10.064 13.96 10.064 14.863V14.864ZM14.427 16.5C15.03 16.5 15.518 15.767 15.518 14.864C15.518 13.96 15.03 13.227 14.428 13.227C13.826 13.227 13.336 13.96 13.336 14.863C13.336 15.767 13.825 16.5 14.427 16.5Z" fill="black"/>
<path d="M38.076 18V7.09091H42.1669C43.005 7.09091 43.7081 7.23651 44.2763 7.5277C44.848 7.81889 45.2795 8.22727 45.5707 8.75284C45.8654 9.27486 46.0128 9.88388 46.0128 10.5799C46.0128 11.2795 45.8636 11.8867 45.5653 12.4016C45.2706 12.913 44.8356 13.3089 44.2603 13.5895C43.685 13.8665 42.9783 14.005 42.1403 14.005H39.2266V12.3643H41.8739C42.364 12.3643 42.7653 12.2969 43.0778 12.1619C43.3903 12.0234 43.6211 11.8228 43.7702 11.56C43.9229 11.2937 43.9993 10.967 43.9993 10.5799C43.9993 10.1928 43.9229 9.86257 43.7702 9.58913C43.6175 9.31214 43.3849 9.10263 43.0724 8.96058C42.7599 8.81499 42.3569 8.74219 41.8633 8.74219H40.0522V18H38.076ZM43.7116 13.0568L46.4123 18H44.207L41.5543 13.0568H43.7116ZM47.8319 18V7.09091H54.927V8.74751H49.8081V11.7092H54.5595V13.3658H49.8081V16.3434H54.9696V18H47.8319ZM64.2514 10.5746C64.1626 10.2869 64.0401 10.0295 63.8839 9.8022C63.7312 9.57138 63.5465 9.37429 63.3299 9.21094C63.1168 9.04759 62.8718 8.92507 62.5948 8.84339C62.3178 8.75817 62.016 8.71555 61.6893 8.71555C61.1033 8.71555 60.5813 8.86293 60.1232 9.15767C59.6651 9.45241 59.3047 9.88565 59.0419 10.4574C58.7827 11.0256 58.6531 11.718 58.6531 12.5348C58.6531 13.3587 58.7827 14.0565 59.0419 14.6282C59.3011 15.1999 59.6616 15.6349 60.1232 15.9332C60.5849 16.228 61.1211 16.3754 61.7319 16.3754C62.2859 16.3754 62.7653 16.2688 63.1701 16.0558C63.5785 15.8427 63.8928 15.5408 64.1129 15.1502C64.3331 14.756 64.4432 14.2944 64.4432 13.7653L64.8906 13.8345H61.929V12.2898H66.3555V13.6001C66.3555 14.5341 66.1566 15.342 65.7589 16.0238C65.3612 16.7056 64.8143 17.2312 64.1183 17.6005C63.4222 17.9663 62.6232 18.1491 61.7212 18.1491C60.7163 18.1491 59.8338 17.9237 59.0739 17.4727C58.3175 17.0181 57.7262 16.3736 57.3001 15.5391C56.8775 14.701 56.6662 13.7067 56.6662 12.5561C56.6662 11.6754 56.7905 10.8888 57.0391 10.1964C57.2912 9.50391 57.6428 8.91619 58.0938 8.43324C58.5447 7.94673 59.0739 7.57741 59.6811 7.32528C60.2884 7.0696 60.9489 6.94176 61.6626 6.94176C62.2663 6.94176 62.8292 7.03054 63.3512 7.2081C63.8732 7.3821 64.3366 7.63068 64.7415 7.95384C65.1499 8.27699 65.4854 8.66051 65.7482 9.1044C66.011 9.5483 66.1832 10.0384 66.2649 10.5746H64.2514ZM70.2426 7.09091V18H68.2664V7.09091H70.2426ZM81.3475 7.09091V18H79.5897L74.4494 10.5692H74.3588V18H72.3826V7.09091H74.1511L79.286 14.527H79.3819V7.09091H81.3475ZM84.9017 18H82.7923L86.6329 7.09091H89.0725L92.9184 18H90.809L87.8953 9.32812H87.8101L84.9017 18ZM84.971 13.7227H90.7238V15.31H84.971V13.7227ZM104.005 10.0898C103.955 9.62464 103.745 9.26243 103.376 9.0032C103.01 8.74396 102.534 8.61435 101.949 8.61435C101.537 8.61435 101.183 8.67649 100.888 8.80078C100.594 8.92507 100.368 9.09375 100.212 9.30682C100.056 9.51989 99.9759 9.76314 99.9723 10.0366C99.9723 10.2638 100.024 10.4609 100.127 10.6278C100.233 10.7947 100.377 10.9368 100.558 11.054C100.739 11.1676 100.94 11.2635 101.16 11.3416C101.38 11.4197 101.602 11.4854 101.826 11.5387L102.849 11.7944C103.261 11.8903 103.657 12.0199 104.037 12.1832C104.42 12.3466 104.763 12.5526 105.065 12.8011C105.37 13.0497 105.612 13.3498 105.789 13.7013C105.967 14.0529 106.055 14.4648 106.055 14.9371C106.055 15.5763 105.892 16.1392 105.565 16.6257C105.239 17.1087 104.766 17.4869 104.148 17.7603C103.534 18.0302 102.79 18.1651 101.917 18.1651C101.068 18.1651 100.331 18.0337 99.706 17.771C99.0845 17.5082 98.598 17.1246 98.2464 16.6204C97.8984 16.1161 97.7102 15.5018 97.6818 14.7773H99.6261C99.6545 15.1573 99.7717 15.4734 99.9776 15.7255C100.184 15.9776 100.452 16.1658 100.782 16.2901C101.116 16.4144 101.489 16.4766 101.901 16.4766C102.33 16.4766 102.707 16.4126 103.03 16.2848C103.357 16.1534 103.612 15.9723 103.797 15.7415C103.982 15.5071 104.076 15.2337 104.079 14.9212C104.076 14.6371 103.992 14.4027 103.829 14.218C103.665 14.0298 103.436 13.8736 103.142 13.7493C102.85 13.6214 102.51 13.5078 102.119 13.4084L100.878 13.0888C99.9794 12.858 99.2692 12.5082 98.7472 12.0394C98.2287 11.5671 97.9695 10.9403 97.9695 10.1591C97.9695 9.51633 98.1435 8.95348 98.4915 8.47053C98.843 7.98757 99.3207 7.61293 99.9244 7.34659C100.528 7.0767 101.212 6.94176 101.975 6.94176C102.749 6.94176 103.428 7.0767 104.01 7.34659C104.596 7.61293 105.056 7.98402 105.39 8.45987C105.723 8.93217 105.896 9.4755 105.906 10.0898H104.005ZM109.042 18H106.933L110.774 7.09091H113.213L117.059 18H114.95L112.036 9.32812H111.951L109.042 18ZM109.112 13.7227H114.864V15.31H109.112V13.7227ZM122.193 18H118.496V7.09091H122.267C123.35 7.09091 124.281 7.3093 125.058 7.74609C125.84 8.17933 126.44 8.80256 126.859 9.61577C127.278 10.429 127.487 11.402 127.487 12.5348C127.487 13.6712 127.276 14.6477 126.854 15.4645C126.434 16.2812 125.829 16.908 125.037 17.3448C124.249 17.7816 123.301 18 122.193 18ZM120.472 16.2901H122.097C122.857 16.2901 123.491 16.1516 123.998 15.8746C124.506 15.5941 124.888 15.1768 125.144 14.6229C125.399 14.0653 125.527 13.3693 125.527 12.5348C125.527 11.7003 125.399 11.0078 125.144 10.4574C124.888 9.90341 124.51 9.4897 124.009 9.21626C123.512 8.93928 122.894 8.80078 122.155 8.80078H120.472V16.2901ZM129.365 18V7.09091H133.456C134.294 7.09091 134.997 7.23651 135.565 7.5277C136.137 7.81889 136.569 8.22727 136.86 8.75284C137.154 9.27486 137.302 9.88388 137.302 10.5799C137.302 11.2795 137.153 11.8867 136.854 12.4016C136.56 12.913 136.125 13.3089 135.549 13.5895C134.974 13.8665 134.267 14.005 133.429 14.005H130.516V12.3643H133.163C133.653 12.3643 134.054 12.2969 134.367 12.1619C134.679 12.0234 134.91 11.8228 135.059 11.56C135.212 11.2937 135.288 10.967 135.288 10.5799C135.288 10.1928 135.212 9.86257 135.059 9.58913C134.907 9.31214 134.674 9.10263 134.362 8.96058C134.049 8.81499 133.646 8.74219 133.152 8.74219H131.341V18H129.365ZM135.001 13.0568L137.701 18H135.496L132.843 13.0568H135.001ZM141.097 7.09091V18H139.121V7.09091H141.097ZM143.237 18V7.09091H150.332V8.74751H145.213V11.7092H149.965V13.3658H145.213V16.3434H150.375V18H143.237ZM153.808 7.09091L156.647 15.6776H156.759L159.593 7.09091H161.766L157.92 18H155.481L151.64 7.09091H153.808ZM163.329 18H161.22L165.061 7.09091H167.5L171.346 18H169.237L166.323 9.32812H166.238L163.329 18ZM163.399 13.7227H169.152V15.31H163.399V13.7227Z" fill="black"/>
</g>
</g>
<defs>
<clipPath id="clip0_2608_3702">
<rect width="180" height="24" fill="white"/>
</clipPath>
</defs>
</svg>
